<?xml version="1.0" encoding="UTF-8" standalone="no"?>
<!DOCTYPE svg PUBLIC "-//W3C//DTD SVG 1.1//EN" "http://www.w3.org/Graphics/SVG/1.1/DTD/svg11.dtd">
<svg width="100%" height="100%" viewBox="0 0 2048 2048" version="1.1" xmlns="http://www.w3.org/2000/svg" xmlns:xlink="http://www.w3.org/1999/xlink" xml:space="preserve" xmlns:serif="http://www.serif.com/" style="fill-rule:evenodd;clip-rule:evenodd;stroke-linecap:round;stroke-linejoin:round;stroke-miterlimit:1.5;">
    <g id="レイヤー4">
    </g>
    <g id="レイヤー5">
        <path d="M1553.28,407.876C1555.41,206.572 1400.18,-1.793 1225.38,-1.345C822.846,-0.312 0.08,824.284 3.032,1224.4C5.254,1525.43 292.165,1639.85 514.834,1639.64C1230.34,1638.98 827.471,206.707 1134.22,205.455C1224.56,205.086 1320.69,302.962 1325.13,406.775C1334.19,618.693 1440.48,615.888 1440.48,615.888C1440.48,615.888 1551.14,610.046 1553.28,407.876ZM823.212,401.58C823.212,401.58 816.233,1434.55 514.634,1433.26C310.258,1432.39 203.976,1350.19 203.986,1230.43C204.022,821.814 823.212,401.58 823.212,401.58Z" style="stroke:black;stroke-width:1px;"/>
    </g>
</svg>
