<?xml version="1.0" encoding="UTF-8" standalone="no"?>
<!DOCTYPE svg PUBLIC "-//W3C//DTD SVG 1.1//EN" "http://www.w3.org/Graphics/SVG/1.1/DTD/svg11.dtd">
<svg width="100%" height="100%" viewBox="0 0 2048 2048" version="1.1" xmlns="http://www.w3.org/2000/svg" xmlns:xlink="http://www.w3.org/1999/xlink" xml:space="preserve" xmlns:serif="http://www.serif.com/" style="fill-rule:evenodd;clip-rule:evenodd;stroke-linecap:round;stroke-linejoin:round;stroke-miterlimit:1.5;">
    <g id="レイヤー5">
        <path d="M721.233,2.263C615.677,3.833 504.618,209.84 504.618,209.84C504.618,209.84 405.399,-3.068 303.257,-1.541C106.564,1.401 5.173,118.491 5,215.943C4.642,417.563 3.728,1028.17 1.962,1233.62C0.267,1430.79 93.652,1637.22 204.4,1638.01C411.787,1639.5 412.85,1642.82 524.275,1639.26C614.976,1636.37 717.607,1435.84 717.607,1435.84C717.607,1435.84 618.362,1435.79 410.186,1434.42C317.372,1433.81 204.717,1326.97 205.996,1229.14C208.651,1026.13 207.151,295.988 207.151,295.988C207.151,295.988 615.076,1083.1 817.866,1437.46C865.874,1521.36 956.387,1637.33 1027.99,1635.45C1153.07,1632.18 1229.22,1430.97 1229.22,1430.97C1229.22,1430.97 1333.17,1641.39 1437.79,1640.57C1641.98,1638.95 1776.27,1430.59 1776.27,1430.59C1776.27,1430.59 1641.51,1432.68 1540.4,1433.75C1438.32,1434.84 1023.75,-2.24 721.233,2.263ZM529.929,278.258C529.929,278.258 664.805,203.173 763.839,410.952C859.152,610.924 1229.22,1430.97 1229.22,1430.97C1229.22,1430.97 1150.53,1432.75 1064.72,1431.11C1025.27,1430.36 529.929,278.258 529.929,278.258Z" style="stroke:black;stroke-width:1px;"/>
    </g>
</svg>
