<?xml version="1.0" encoding="UTF-8" standalone="no"?>
<!DOCTYPE svg PUBLIC "-//W3C//DTD SVG 1.1//EN" "http://www.w3.org/Graphics/SVG/1.1/DTD/svg11.dtd">
<svg width="100%" height="100%" viewBox="0 0 2048 2048" version="1.1" xmlns="http://www.w3.org/2000/svg" xmlns:xlink="http://www.w3.org/1999/xlink" xml:space="preserve" xmlns:serif="http://www.serif.com/" style="fill-rule:evenodd;clip-rule:evenodd;stroke-linecap:round;stroke-linejoin:round;stroke-miterlimit:1.5;">
    <g id="レイヤー5">
        <path d="M1335.95,409.231C1341.81,211.624 1114.61,-6.466 928.195,-1.617C719.013,3.823 721.13,105.552 521.982,108.523C420.675,110.035 405.05,-1.268 342.769,-0.974C287.457,-0.713 2.29,153.927 1.207,203.241C0.237,247.418 207.571,203.106 207.328,316.976C206.699,612.514 2.305,1437.99 2.503,1539.52C2.695,1637.13 3.243,1639.31 79.624,1640.3C112.25,1640.73 203.668,1564.64 226.556,1435.65C292.503,1063.99 363.346,642.967 410.562,416.173C424.321,350.084 461.221,312.378 516.462,311.676C613.932,310.44 798.707,205.4 923.698,202.473C1028.6,200.017 1127.47,312.479 1128.58,409.131C1129.76,512.236 913.572,570.862 816.508,573.061C726.675,575.096 621.067,679.005 615.282,719.82C595.727,857.776 507.93,1539 507.93,1539C507.93,1539 651.996,1538.69 725.638,1538.73C848.558,1538.8 1233.63,1223.56 1233.63,1223.56C1233.63,1223.56 754.423,1413.8 763.171,1317.88C771.7,1224.34 782.499,1018.18 808.154,812.552C813.476,769.892 1326.64,723.551 1335.95,409.231Z" style="stroke:black;stroke-width:1px;"/>
    </g>
</svg>
