<?xml version="1.0" encoding="UTF-8" standalone="no"?>
<!DOCTYPE svg PUBLIC "-//W3C//DTD SVG 1.1//EN" "http://www.w3.org/Graphics/SVG/1.1/DTD/svg11.dtd">
<svg width="100%" height="100%" viewBox="0 0 2048 2048" version="1.1" xmlns="http://www.w3.org/2000/svg" xmlns:xlink="http://www.w3.org/1999/xlink" xml:space="preserve" xmlns:serif="http://www.serif.com/" style="fill-rule:evenodd;clip-rule:evenodd;stroke-linecap:round;stroke-linejoin:round;stroke-miterlimit:1.5;">
    <g id="レイヤー5">
        <path d="M103.943,204.951C71.497,610.468 0.574,1571.23 0.826,1603.86C1.091,1638.15 1.783,1637.59 51.151,1637.85C101.922,1638.12 1537.8,816.691 1540.52,410.012C1541.84,212.433 1534.13,-1.201 1230.44,1.361C918.684,3.992 466.824,614.393 517.73,613.257C572.4,612.037 1230.2,2.386 1229.3,408.039C1228.51,765.343 205.234,1387.2 205.234,1387.2C205.234,1387.2 312.962,608.75 351.013,204.621C357.432,136.445 371.408,4.377 312.206,1.07C260.789,-1.802 120.065,3.453 103.943,204.951Z" style="stroke:black;stroke-width:1px;"/>
    </g>
</svg>
