<?xml version="1.0" encoding="UTF-8" standalone="no"?>
<!DOCTYPE svg PUBLIC "-//W3C//DTD SVG 1.1//EN" "http://www.w3.org/Graphics/SVG/1.1/DTD/svg11.dtd">
<svg width="100%" height="100%" viewBox="0 0 2048 2048" version="1.1" xmlns="http://www.w3.org/2000/svg" xmlns:xlink="http://www.w3.org/1999/xlink" xml:space="preserve" xmlns:serif="http://www.serif.com/" style="fill-rule:evenodd;clip-rule:evenodd;stroke-linecap:round;stroke-linejoin:round;stroke-miterlimit:1.5;">
    <g id="レイヤー5">
        <path d="M409.427,203.47C418.079,132.164 408.307,-3.315 346.153,-2.428C206.211,-0.43 122.586,154.788 97.976,203.739C78.019,243.435 203.062,202.715 191.251,285.948C145.333,609.531 0.073,1594.75 1.085,1615.21C2.23,1638.36 2.15,1638.06 22.782,1637.74C48.721,1637.33 819.009,1024.58 1022.59,821.849C1225.07,620.213 1226.93,315.421 1226.93,315.421C1226.93,315.421 1597.17,108.876 1592.82,410.672C1586.87,823.758 565.489,1638.08 616.054,1636.81C666.618,1635.55 1846.66,821.114 1847,407.284C1847.16,206.944 1739.8,2.327 1540.59,-1.173C1441.51,-2.913 1220.35,206.286 1220.35,206.286C1220.35,206.286 1228.19,-2.649 1020.89,-1.912C824.534,-1.215 529.537,316.42 611.891,314.559C696.26,312.651 1215,81.32 930.782,611.725C824.135,810.75 279.566,1239.73 279.566,1239.73C279.566,1239.73 384.864,405.897 409.427,203.47Z" style="stroke:black;stroke-width:1px;"/>
    </g>
</svg>
