<?xml version="1.0" encoding="UTF-8" standalone="no"?>
<!DOCTYPE svg PUBLIC "-//W3C//DTD SVG 1.1//EN" "http://www.w3.org/Graphics/SVG/1.1/DTD/svg11.dtd">
<svg width="100%" height="100%" viewBox="0 0 2048 2048" version="1.1" xmlns="http://www.w3.org/2000/svg" xmlns:xlink="http://www.w3.org/1999/xlink" xml:space="preserve" xmlns:serif="http://www.serif.com/" style="fill-rule:evenodd;clip-rule:evenodd;stroke-linecap:round;stroke-linejoin:round;stroke-miterlimit:1.5;">
    <g id="レイヤー5">
        <path d="M1432.83,409.691C1430.42,208.275 1228.9,2.485 1025.95,2.675C615.053,3.058 411.57,271.714 411.57,271.714L475.965,3.367C475.965,3.367 411.921,-0.148 259.076,2.181C208.322,2.954 0.737,242.78 0.22,290.963C-0.315,340.757 206.233,303.761 205.943,368.25C204.847,612.812 113.623,924.529 113.623,924.529C113.623,924.529 406.071,814.086 408.326,612.771C410.156,449.478 619.101,202.32 907.071,201.84C1036.13,201.625 1190.58,302.17 1193.43,412.567C1196.37,526.878 1130.22,646.869 1025.79,647.084C917.671,647.306 914.456,613 705.32,612.112C615.269,611.729 511.729,718.25 511.94,818.413C512.37,1022.46 502.663,1101.88 453.55,1229.54C401.07,1365.95 197.057,1636.89 197.057,1636.89C197.057,1636.89 676.227,1641.46 709.181,1229.33C719.752,1097.12 733.744,883.706 733.744,883.706C733.744,883.706 922.956,882.721 1030.83,881.578C1147.97,880.338 1435.28,614.602 1432.83,409.691Z" style="stroke:black;stroke-width:1px;"/>
    </g>
</svg>
