<?xml version="1.0" encoding="UTF-8" standalone="no"?>
<!DOCTYPE svg PUBLIC "-//W3C//DTD SVG 1.1//EN" "http://www.w3.org/Graphics/SVG/1.1/DTD/svg11.dtd">
<svg width="100%" height="100%" viewBox="0 0 2048 2048" version="1.1" xmlns="http://www.w3.org/2000/svg" xmlns:xlink="http://www.w3.org/1999/xlink" xml:space="preserve" xmlns:serif="http://www.serif.com/" style="fill-rule:evenodd;clip-rule:evenodd;stroke-linecap:round;stroke-linejoin:round;stroke-miterlimit:1.5;">
    <g id="レイヤー5">
        <path d="M1434.12,159.479C1437.05,118.554 1228.48,1.828 1024.62,1.766C612.944,1.642 -3.621,411.818 -2.432,1017.9C-1.809,1335.63 306.6,1641.15 405.388,1638.05C459.309,1636.35 528.276,1640.26 619.572,1639.15C696.265,1638.22 814.277,1528.14 817.354,1432.96C824.025,1226.58 816.723,712.472 816.723,712.472C816.723,712.472 1232.52,567.765 1231.05,1020.72C1230.06,1327.56 822.296,1633.31 822.296,1633.31C822.296,1633.31 1420.63,1545.05 1426.7,1023.99C1431.96,572.004 1232.48,504.572 1120.96,502.847C1013.41,501.183 901.698,576.978 817.908,615.798C747.453,648.44 619.161,617.233 618.228,735.766C615.983,1020.93 613.366,1435.65 613.366,1435.65C613.366,1435.65 201.723,1438.79 201.069,1028.86C199.758,207.284 1029.03,99.996 1232.2,278.977C1298.33,337.235 1430.81,205.685 1434.12,159.479Z" style="stroke:black;stroke-width:1px;"/>
    </g>
</svg>
