<?xml version="1.0" encoding="UTF-8" standalone="no"?>
<!DOCTYPE svg PUBLIC "-//W3C//DTD SVG 1.1//EN" "http://www.w3.org/Graphics/SVG/1.1/DTD/svg11.dtd">
<svg width="100%" height="100%" viewBox="0 0 2048 2048" version="1.1" xmlns="http://www.w3.org/2000/svg" xmlns:xlink="http://www.w3.org/1999/xlink" xml:space="preserve" xmlns:serif="http://www.serif.com/" style="fill-rule:evenodd;clip-rule:evenodd;stroke-linecap:round;stroke-linejoin:round;stroke-miterlimit:1.5;">
    <g id="レイヤー5">
        <path d="M205.783,204.874C175.405,344.557 157.45,614.965 130.188,816.12C97.904,1054.34 1.644,1639.93 1.644,1639.93C1.644,1639.93 112.702,1371.27 306.855,1370.45C407.704,1370.02 613.748,1638.98 820.137,1639.35C1016.89,1639.71 1333.72,1223.14 1336.54,1030.01C1339.59,821.418 1125.42,611.911 921.176,612.83C711.185,613.775 329.093,819.557 329.093,819.557C329.093,819.557 340.042,719.183 346.769,669.941C353.451,621.036 367.993,551.258 367.993,551.258C367.993,551.258 865.141,251.44 968.68,251.791C1164.09,252.453 1126.78,311.618 1229.64,313.131C1287.32,313.98 1341.46,260.134 1341.07,203.891C1340.36,100.673 1231.21,2.017 1130.93,1.943C969.267,1.822 391.065,359.174 391.065,359.174C391.065,359.174 404.217,248.401 410.563,203.307C416.746,159.376 507.367,161.566 508.242,101.46C509.129,40.512 456.97,1.916 411.385,1.158C351.137,0.158 226.029,111.782 205.783,204.874ZM306.969,1043.48C306.969,1043.48 620.639,819.381 868.151,819.849C967.251,820.036 1116.77,907.888 1114.03,1028.67C1110.78,1172.43 971.515,1397.06 822.755,1398.01C713.619,1398.7 655.896,1350.42 542.969,1287.22C388.614,1200.83 285.3,1203.17 285.3,1203.17C285.3,1203.17 291.447,1161.67 295.574,1131.23C300.126,1097.67 306.969,1043.48 306.969,1043.48Z" style="stroke:black;stroke-width:1px;"/>
    </g>
</svg>
