<?xml version="1.0" encoding="UTF-8" standalone="no"?>
<!DOCTYPE svg PUBLIC "-//W3C//DTD SVG 1.1//EN" "http://www.w3.org/Graphics/SVG/1.1/DTD/svg11.dtd">
<svg width="100%" height="100%" viewBox="0 0 2048 2048" version="1.1" xmlns="http://www.w3.org/2000/svg" xmlns:xlink="http://www.w3.org/1999/xlink" xml:space="preserve" xmlns:serif="http://www.serif.com/" style="fill-rule:evenodd;clip-rule:evenodd;stroke-linecap:round;stroke-linejoin:round;stroke-miterlimit:1.5;">
    <g id="レイヤー5">
        <path d="M410.194,2.123C312.139,1.512 118.76,259.437 118.829,306.204C118.977,406.301 320.485,302.055 304.063,408.833C287.811,514.509 246.959,820.114 204.994,1115.07C167.239,1380.43 1.097,1566.36 0.916,1597C0.682,1636.83 0.586,1638.02 28.438,1638.79C63.416,1639.76 278.967,1534.85 342.124,1430.57C416.616,1307.57 626.85,1165.84 821.457,1030.12C1120.02,821.919 1433.11,514.754 1434.87,308.038C1436.55,110.071 1327.24,0.429 1224.81,2.148C1023.86,5.519 777.237,312.477 820.188,309.29C865.083,305.958 1185.1,133.824 1182.32,313.313C1177.63,615.842 408.437,1115.12 408.437,1115.12C408.437,1115.12 493.26,406.46 516.137,205.057C524.749,129.236 511.419,2.753 410.194,2.123Z" style="stroke:black;stroke-width:1px;"/>
    </g>
</svg>
