<?xml version="1.0" encoding="UTF-8" standalone="no"?>
<!DOCTYPE svg PUBLIC "-//W3C//DTD SVG 1.1//EN" "http://www.w3.org/Graphics/SVG/1.1/DTD/svg11.dtd">
<svg width="100%" height="100%" viewBox="0 0 2048 2048" version="1.1" xmlns="http://www.w3.org/2000/svg" xmlns:xlink="http://www.w3.org/1999/xlink" xml:space="preserve" xmlns:serif="http://www.serif.com/" style="fill-rule:evenodd;clip-rule:evenodd;stroke-linecap:round;stroke-linejoin:round;stroke-miterlimit:1.5;">
    <g id="レイヤー5">
        <path d="M411.813,0.764C104.609,5.289 -0.081,460.11 0.827,512.157C1.71,562.847 217.84,265.75 376.716,266.093C491.202,266.34 684.681,819.998 684.681,819.998C684.681,819.998 4.554,1121.93 0.949,1435.98C-0.336,1547.91 93.643,1637.4 205.388,1639.08C305.314,1640.59 517.356,1635.08 517.656,1595.32C517.99,1550.99 262.093,1512.48 265.439,1424.11C271.308,1269.12 755.147,998.571 755.147,998.571C755.147,998.571 1024.7,1638.35 1382.96,1640.06C1543.12,1640.82 1743.95,1323.88 1745.54,1229.79C1747.05,1139.64 1637.87,1394.11 1434.95,1389.2C1138.74,1382.02 964.181,925.988 964.181,925.988C964.181,925.988 1638.68,658.434 1639.43,281.943C1639.78,108.713 1548.05,3.699 1439.12,1.243C1349.06,-0.787 1232.1,56.867 1230.06,109.424C1228.34,153.689 1401,207.713 1399.67,278.213C1394.38,556.698 888.279,754.667 888.279,754.667C888.279,754.667 668.379,-3.014 411.813,0.764Z" style="stroke:black;stroke-width:1px;"/>
    </g>
</svg>
