<?xml version="1.0" encoding="UTF-8" standalone="no"?>
<!DOCTYPE svg PUBLIC "-//W3C//DTD SVG 1.1//EN" "http://www.w3.org/Graphics/SVG/1.1/DTD/svg11.dtd">
<svg width="100%" height="100%" viewBox="0 0 2048 2048" version="1.1" xmlns="http://www.w3.org/2000/svg" xmlns:xlink="http://www.w3.org/1999/xlink" xml:space="preserve" xmlns:serif="http://www.serif.com/" style="fill-rule:evenodd;clip-rule:evenodd;stroke-linecap:round;stroke-linejoin:round;stroke-miterlimit:1.5;">
    <g id="レイヤー5">
        <path d="M411.659,1.482C203.661,2.481 126.406,206.909 105.294,255.005C83.312,305.084 314.96,262.903 314.496,361.477C313.325,610.693 -1.605,915.069 -0.664,1133.24C0.632,1433.54 508.158,1640.73 818.351,1638.95C1222.13,1636.64 1636.94,1227.09 1638.12,820.018C1639.27,427.755 1436.88,1.788 1142.09,3.308C821.291,4.962 610.845,309.793 612.84,512.431C616.805,915.178 613.714,1381.77 613.714,1381.77C613.714,1381.77 206.116,1377.26 203.638,1120.27C200.801,826.063 517.726,812.162 520.137,205.225C520.453,125.688 514.77,0.987 411.659,1.482ZM823.174,508.583C822.697,411.401 878.184,207.042 1077.01,208.173C1279.55,209.325 1430.84,512.167 1430.65,711.034C1430.03,1389.5 824.319,1383.74 824.319,1383.74C824.319,1383.74 824.149,707.305 823.174,508.583Z" style="stroke:black;stroke-width:1px;"/>
    </g>
</svg>
