<?xml version="1.0" encoding="UTF-8" standalone="no"?>
<!DOCTYPE svg PUBLIC "-//W3C//DTD SVG 1.1//EN" "http://www.w3.org/Graphics/SVG/1.1/DTD/svg11.dtd">
<svg width="100%" height="100%" viewBox="0 0 2048 2048" version="1.1" xmlns="http://www.w3.org/2000/svg" xmlns:xlink="http://www.w3.org/1999/xlink" xml:space="preserve" xmlns:serif="http://www.serif.com/" style="fill-rule:evenodd;clip-rule:evenodd;stroke-linejoin:round;stroke-miterlimit:2;">
    <g id="レイヤー5">
        <path d="M614.888,3.15C952.616,3.15 1226.81,368.681 1226.81,818.914C1226.81,1269.15 952.616,1634.68 614.888,1634.68C277.16,1634.68 2.968,1269.15 2.968,818.914C2.968,368.681 277.16,3.15 614.888,3.15ZM511.579,194.31C752.516,150.976 996.634,385.505 1056.38,717.713C1116.13,1049.92 962.265,1326.78 728.095,1398.15C528.571,1458.95 402.176,1322.03 402.176,1322.03C402.176,1322.03 724.833,1019.4 722.064,818.006C720.618,712.828 519.872,722.17 518.82,820.439C516.698,1018.5 327.864,1251.16 327.864,1251.16C327.864,1251.16 202.307,1149.19 173.016,878.111C136.755,542.527 270.643,237.643 511.579,194.31Z"/>
    </g>
</svg>
