<?xml version="1.0" encoding="UTF-8" standalone="no"?>
<!DOCTYPE svg PUBLIC "-//W3C//DTD SVG 1.1//EN" "http://www.w3.org/Graphics/SVG/1.1/DTD/svg11.dtd">
<svg width="100%" height="100%" viewBox="0 0 2048 2048" version="1.1" xmlns="http://www.w3.org/2000/svg" xmlns:xlink="http://www.w3.org/1999/xlink" xml:space="preserve" xmlns:serif="http://www.serif.com/" style="fill-rule:evenodd;clip-rule:evenodd;stroke-linecap:round;stroke-linejoin:round;stroke-miterlimit:1.5;">
    <g id="レイヤー5">
        <path d="M535.3,1269.74C436.304,1578.8 57.885,1638.35 30.963,1638.3C2.71,1638.25 2.037,1638.55 1.821,1626.04C1.582,1612.25 348.057,1419.43 351.384,1228.39C354.879,1027.73 356.457,617.494 353.784,408.98C351.189,206.549 520.016,7.303 798.169,4.01C1054.42,0.977 1297.3,168.919 1355.74,244.533C1401.75,304.064 1289.59,405.863 1200.13,406.987C1098.78,408.261 1083.64,203.562 818.605,203.51C716.637,203.491 566.992,255.986 563.668,412.994C560.982,539.896 560.114,721.777 559.571,888.369C595.116,866.48 637.659,838.46 660.189,816.973C710.539,768.953 819.268,665.641 819.868,609.6C820.926,510.689 1023.63,509.506 1024.5,611.254C1025.39,716.109 921.761,769.32 821.509,819.947C702.141,880.228 613.167,905.367 559.484,915.851C559.261,987.571 559.084,1055.69 558.83,1114.38C558.617,1163.63 552.372,1208.4 541.384,1249.1C579.314,1226.36 633.578,1192.01 660.102,1166.71C710.452,1118.69 819.182,1015.38 819.781,959.338C820.84,860.427 1023.54,859.244 1024.41,960.993C1025.31,1065.85 921.674,1119.06 821.423,1169.68C681.93,1240.13 583.944,1262.58 535.3,1269.74Z" style="stroke:black;stroke-width:1px;"/>
    </g>
</svg>
