<?xml version="1.0" encoding="UTF-8" standalone="no"?>
<!DOCTYPE svg PUBLIC "-//W3C//DTD SVG 1.1//EN" "http://www.w3.org/Graphics/SVG/1.1/DTD/svg11.dtd">
<svg width="100%" height="100%" viewBox="0 0 2048 2048" version="1.1" xmlns="http://www.w3.org/2000/svg" xmlns:xlink="http://www.w3.org/1999/xlink" xml:space="preserve" xmlns:serif="http://www.serif.com/" style="fill-rule:evenodd;clip-rule:evenodd;stroke-linecap:round;stroke-linejoin:round;stroke-miterlimit:1.5;">
    <g id="レイヤー5">
        <g transform="matrix(1,0,0,1.00182,0,200.051)">
            <path d="M410.03,1335.82C410.033,1382 410.481,1381.67 437.198,1381.64C466.314,1381.61 614.279,1268.69 614.279,1268.69C614.279,1268.69 756.339,1433.97 861.411,1434.54C1070.84,1435.68 1232.65,1226.4 1231.25,1024.45C1230.52,918.239 1123.58,676.357 922.129,672.626C815.538,670.652 617.865,819.914 617.865,819.914C617.865,819.914 614.62,416.829 615.361,110.097C615.85,-91.808 410.651,-198.855 308.738,-198.598C206.486,-198.34 2.071,-55.722 1.502,1.377C1.108,41.056 409.805,-88.323 409.686,208.276C409.56,520.88 410.013,1130.78 410.03,1335.82ZM615.696,984.507C615.696,984.507 740.894,914.665 816.113,889.611C1033.06,817.347 1096.4,1143.3 989.775,1204.69C785.708,1322.2 615.42,1114.39 615.42,1114.39L615.696,984.507Z" style="stroke:black;stroke-width:1px;"/>
        </g>
        <g transform="matrix(0.995762,0,0,1.11514,-447.877,-265.999)">
            <path d="M737.99,601.924C859.688,601.636 968.845,725.911 968.845,725.911L963.519,883.137C963.519,883.137 857.634,785.45 654.65,783.296C575.837,782.46 451.174,818.059 451.372,785.52C451.54,758.037 659.842,602.109 737.99,601.924Z" style="stroke:black;stroke-width:0.95px;"/>
        </g>
    </g>
</svg>
