<?xml version="1.0" encoding="UTF-8" standalone="no"?>
<!DOCTYPE svg PUBLIC "-//W3C//DTD SVG 1.1//EN" "http://www.w3.org/Graphics/SVG/1.1/DTD/svg11.dtd">
<svg width="100%" height="100%" viewBox="0 0 2048 2048" version="1.1" xmlns="http://www.w3.org/2000/svg" xmlns:xlink="http://www.w3.org/1999/xlink" xml:space="preserve" xmlns:serif="http://www.serif.com/" style="fill-rule:evenodd;clip-rule:evenodd;stroke-linecap:round;stroke-linejoin:round;stroke-miterlimit:1.5;">
    <g transform="matrix(-1,0,0,1,1435.58,0)">
        <g id="レイヤー5">
            <path d="M1433.28,1438.73C1433.03,1224.15 814.36,-1.452 515.407,0.199C203.095,1.924 2.22,407.597 2.302,618.539C2.341,717.501 44.112,815.77 102.504,817.596C163.601,819.507 255.069,664.607 255.515,612.727C255.84,574.868 204.638,568.636 204.765,515.994C205.025,409.04 300.19,201.298 408.601,202.096C614.832,203.613 1430.99,1437.42 1134.33,1432.23C821.015,1426.76 411.522,1436.8 206.998,1433.8C165.325,1433.18 44.856,1636.47 97.314,1636.73C410.242,1638.24 1025.96,1639.81 1232.45,1636.39C1326.37,1634.83 1433.4,1542.02 1433.28,1438.73Z" style="stroke:black;stroke-width:1px;"/>
        </g>
    </g>
</svg>
