<?xml version="1.0" encoding="UTF-8" standalone="no"?>
<!DOCTYPE svg PUBLIC "-//W3C//DTD SVG 1.1//EN" "http://www.w3.org/Graphics/SVG/1.1/DTD/svg11.dtd">
<svg width="100%" height="100%" viewBox="0 0 2048 2048" version="1.1" xmlns="http://www.w3.org/2000/svg" xmlns:xlink="http://www.w3.org/1999/xlink" xml:space="preserve" xmlns:serif="http://www.serif.com/" style="fill-rule:evenodd;clip-rule:evenodd;stroke-linecap:round;stroke-linejoin:round;stroke-miterlimit:1.5;">
    <g id="レイヤー5">
        <path d="M819.239,772.812C818.066,617.117 820.917,493.874 821.57,412.214C822.384,310.413 722.925,196.199 515.957,201.01C413.824,203.384 102.849,344.771 102.453,307.454C102.044,268.896 412.589,0.272 615.301,0.343C820.971,0.415 1024.71,202.067 1025.73,411.034C1027.23,715.973 1024.32,1123.5 1027.36,1329.75C1028.79,1426.21 1318.93,1599.78 1318.79,1618.47C1318.65,1636.44 1317.96,1636.06 1271.67,1636.81C1229.3,1637.5 822.682,1639.36 819.551,1394.27C817.445,1229.33 819.206,1036.84 820.538,817.531C707.181,932.332 523.625,1119.9 458.65,1197.05C400.693,1265.86 300.157,1375.37 301.984,1433.48C303.761,1489.98 408.821,1491.89 409.387,1530.62C410.155,1583.23 296.841,1636.54 204.486,1636.75C103.321,1636.99 2.496,1633.86 1.446,1538.54C0.3,1434.48 212.05,1191.34 360.444,1065.03C461.575,978.945 688.935,845.513 819.239,772.812Z" style="stroke:black;stroke-width:1px;"/>
    </g>
</svg>
