<?xml version="1.0" encoding="UTF-8" standalone="no"?>
<!DOCTYPE svg PUBLIC "-//W3C//DTD SVG 1.1//EN" "http://www.w3.org/Graphics/SVG/1.1/DTD/svg11.dtd">
<svg width="100%" height="100%" viewBox="0 0 2048 2048" version="1.1" xmlns="http://www.w3.org/2000/svg" xmlns:xlink="http://www.w3.org/1999/xlink" xml:space="preserve" xmlns:serif="http://www.serif.com/" style="fill-rule:evenodd;clip-rule:evenodd;stroke-linecap:round;stroke-linejoin:round;stroke-miterlimit:1.5;">
    <g id="レイヤー5">
        <path d="M1079.2,554.625C1027.65,502.721 817.887,410.344 612.759,410.202C407.876,410.06 -1.308,718.454 -2.546,1029.42C-4.532,1527.66 463.423,1541.22 463.423,1541.22C463.423,1541.22 470.265,1638.89 339.687,1844.48C271.491,1951.85 186.275,2046.61 204.874,2046.97C225.653,2047.36 384.885,1956.82 488.008,1850.67C674.54,1658.66 674.469,1545.8 674.469,1545.8C674.469,1545.8 1120.26,1549.71 1125.06,1113.39C1126.95,941.385 1018.53,815.455 818.232,816.904C467.471,819.442 468.427,1351.88 468.427,1351.88C468.427,1351.88 209.133,1336.47 205.468,1028.88C202.968,819.121 418.677,613.311 615.412,613.46C814.283,613.611 888.814,678.747 936.283,677.6C1019.07,675.599 1130.76,606.529 1079.2,554.625ZM671.102,1358.72C671.102,1358.72 675.543,988.363 821.932,991.189C925.875,993.196 933.883,1083.21 932.578,1141.88C927.887,1352.77 671.102,1358.72 671.102,1358.72Z" style="stroke:black;stroke-width:1px;"/>
    </g>
</svg>
