<?xml version="1.0" encoding="UTF-8" standalone="no"?>
<!DOCTYPE svg PUBLIC "-//W3C//DTD SVG 1.1//EN" "http://www.w3.org/Graphics/SVG/1.1/DTD/svg11.dtd">
<svg width="100%" height="100%" viewBox="0 0 2048 2048" version="1.1" xmlns="http://www.w3.org/2000/svg" xmlns:xlink="http://www.w3.org/1999/xlink" xml:space="preserve" xmlns:serif="http://www.serif.com/" style="fill-rule:evenodd;clip-rule:evenodd;stroke-linejoin:round;stroke-miterlimit:2;">
    <g id="レイヤー5">
        <path d="M816.203,455.5C939.029,521.678 1024.21,658.157 1024.87,821.477C1025.39,950.488 986.111,1100.96 910.738,1240.86C777.491,1488.16 562.628,1638.09 362.928,1639.03C309.476,1639.28 249.967,1619.26 202.856,1593.88C63.934,1519.03 6.117,1353.93 2.35,1162.51C0.105,1048.42 45.251,925.58 108.321,808.522C231.102,580.638 433.491,427.18 618.94,409.827C689.138,403.258 755.4,422.74 816.203,455.5ZM633.859,607.436C797.963,660.606 872.522,884.857 800.254,1107.9C727.987,1330.94 536.083,1468.86 371.979,1415.69C207.876,1362.52 133.317,1138.27 205.584,915.224C277.852,692.18 469.755,554.265 633.859,607.436Z"/>
    </g>
</svg>
