<?xml version="1.0" encoding="UTF-8" standalone="no"?>
<!DOCTYPE svg PUBLIC "-//W3C//DTD SVG 1.1//EN" "http://www.w3.org/Graphics/SVG/1.1/DTD/svg11.dtd">
<svg width="100%" height="100%" viewBox="0 0 2048 2048" version="1.1" xmlns="http://www.w3.org/2000/svg" xmlns:xlink="http://www.w3.org/1999/xlink" xml:space="preserve" xmlns:serif="http://www.serif.com/" style="fill-rule:evenodd;clip-rule:evenodd;stroke-linecap:round;stroke-linejoin:round;stroke-miterlimit:1.5;">
    <g id="レイヤー5">
        <path d="M1026.54,608.823C1026.65,509.472 819.955,409.422 614.017,408.465C408.809,407.511 -1.048,610.738 1.251,818.15C3.536,1024.37 1.092,1434.3 1.537,1584.7C1.692,1637.42 3.574,1638.74 37.173,1639.38C74.196,1640.1 206.054,1474.68 204.299,1431.49C201.559,1364.07 201.553,1232.1 201.553,1232.1C201.553,1232.1 408.686,1028.38 617.312,1029.5C716.651,1030.03 919.638,1227.72 776.994,1430.66C685.281,1561.15 593.159,1639.27 616.582,1639.31C667.748,1639.41 1030.95,1434.88 1027.89,1227.9C1024.84,1022.19 918.418,874.969 716.998,874.242C410.729,873.138 204.262,1134.91 204.262,1134.91C204.262,1134.91 205.043,960.202 204.679,926.433C202.497,724.004 412.526,612.695 512.675,612.73C818.303,612.837 865.781,820.201 922.875,819.353C987.827,818.388 1026.44,692.666 1026.54,608.823Z" style="stroke:black;stroke-width:1px;"/>
    </g>
</svg>
