<?xml version="1.0" encoding="UTF-8" standalone="no"?>
<!DOCTYPE svg PUBLIC "-//W3C//DTD SVG 1.1//EN" "http://www.w3.org/Graphics/SVG/1.1/DTD/svg11.dtd">
<svg width="100%" height="100%" viewBox="0 0 2048 2048" version="1.1" xmlns="http://www.w3.org/2000/svg" xmlns:xlink="http://www.w3.org/1999/xlink" xml:space="preserve" xmlns:serif="http://www.serif.com/" style="fill-rule:evenodd;clip-rule:evenodd;stroke-linecap:round;stroke-linejoin:round;stroke-miterlimit:1.5;">
    <g id="レイヤー5">
        <path d="M1639.08,1433.85C1640.47,1380.52 1544.75,1439.67 1441.3,1329.19C1243.31,1117.73 1230.54,414.465 924.343,411.604C709.69,409.598 587.065,607.763 587.065,607.763C587.065,607.763 516.761,406.192 304.89,406.857C105.29,407.484 0.199,820.81 2.057,1229.74C2.984,1433.63 207.775,1635.24 305.786,1637.1C411.209,1639.1 520.243,1467.64 521.918,1433.93C523.593,1400.22 413.135,1434.94 315.836,1434.86C208.223,1434.78 210.77,616.011 307.104,617.436C406.402,618.904 617.983,1641.2 928.224,1640.74C1017.5,1640.61 1128.92,1471.29 1129.22,1437.21C1129.56,1400.15 928.585,1433.55 822.405,1228.26C716.857,1024.19 618.201,674.519 618.201,674.519C618.201,674.519 684.08,612.369 725.277,612.781C1065.44,616.176 1127.03,1639.8 1429.01,1640.42C1528.2,1640.62 1637.37,1499.42 1639.08,1433.85Z" style="stroke:black;stroke-width:1px;"/>
    </g>
</svg>
