<?xml version="1.0" encoding="UTF-8" standalone="no"?>
<!DOCTYPE svg PUBLIC "-//W3C//DTD SVG 1.1//EN" "http://www.w3.org/Graphics/SVG/1.1/DTD/svg11.dtd">
<svg width="100%" height="100%" viewBox="0 0 2048 2048" version="1.1" xmlns="http://www.w3.org/2000/svg" xmlns:xlink="http://www.w3.org/1999/xlink" xml:space="preserve" xmlns:serif="http://www.serif.com/" style="fill-rule:evenodd;clip-rule:evenodd;stroke-linecap:round;stroke-linejoin:round;stroke-miterlimit:1.5;">
    <g id="レイヤー5">
        <path d="M410.875,1435.64C312.729,1434.49 313.908,1434.7 312.743,1348.65C308.367,1025.36 309.715,411.248 310.73,110.287C311.095,2.074 249.823,0.294 201.778,1.453C147.494,2.763 1.469,160.189 1.396,205.932C1.232,309.135 114.391,205.246 112.963,312.622C108.966,613.167 110.467,1230.52 110.672,1555.85C110.724,1636.85 110.591,1639.42 204.359,1639.01C407.546,1638.12 506.273,1639.77 614.992,1639.12C704.108,1638.58 820.144,1484.33 820.136,1459.63C820.126,1433.77 818.394,1433.87 795.144,1433.8C711.656,1433.55 493.695,1436.61 410.875,1435.64Z" style="stroke:black;stroke-width:1px;"/>
    </g>
</svg>
