<?xml version="1.0" encoding="UTF-8" standalone="no"?>
<!DOCTYPE svg PUBLIC "-//W3C//DTD SVG 1.1//EN" "http://www.w3.org/Graphics/SVG/1.1/DTD/svg11.dtd">
<svg width="100%" height="100%" viewBox="0 0 2048 2048" version="1.1" xmlns="http://www.w3.org/2000/svg" xmlns:xlink="http://www.w3.org/1999/xlink" xml:space="preserve" xmlns:serif="http://www.serif.com/" style="fill-rule:evenodd;clip-rule:evenodd;stroke-linecap:round;stroke-linejoin:round;stroke-miterlimit:1.5;">
    <g id="レイヤー5">
        <path d="M1024.89,817.975C1025.41,616.143 921.577,410.482 612.142,410.585C305.454,410.687 -1.594,713.878 0.501,1027.16C1.237,1137.13 155.335,1229.92 205.306,1229.74C247.845,1229.59 250.003,1187.65 284.822,1187.11C319.107,1186.57 295.397,1303.07 241.929,1437.18C167.321,1624.3 13.092,1845.11 32.444,1845.07C65.664,1844.99 507.352,1630.41 507.583,1176.65C507.664,1019.26 451.455,972.598 407.831,972.393C353.268,972.135 302.27,1024.14 255.616,1024.78C205.175,1025.47 261.344,613.504 530.485,614.859C1132.41,617.89 617.437,1549.11 666.461,1550.23C722.137,1551.5 1023.32,1432.03 1024.89,817.975Z" style="stroke:black;stroke-width:1px;"/>
    </g>
</svg>
