<?xml version="1.0" encoding="UTF-8" standalone="no"?>
<!DOCTYPE svg PUBLIC "-//W3C//DTD SVG 1.1//EN" "http://www.w3.org/Graphics/SVG/1.1/DTD/svg11.dtd">
<svg width="100%" height="100%" viewBox="0 0 2048 2048" version="1.1" xmlns="http://www.w3.org/2000/svg" xmlns:xlink="http://www.w3.org/1999/xlink" xml:space="preserve" xmlns:serif="http://www.serif.com/" style="fill-rule:evenodd;clip-rule:evenodd;stroke-linecap:round;stroke-linejoin:round;stroke-miterlimit:1.5;">
    <g id="レイヤー5">
        <path d="M1022.04,718.268C1021.12,460.917 926.846,414.965 822.736,413.045C714.918,411.056 510.818,614.838 411.462,614.218C311.789,613.597 410.582,409.758 315.194,409.723C209.658,409.685 3.284,569.817 2.422,613.482C1.374,666.631 165.576,680.969 146.064,815.936C116.009,1023.83 102.379,1153.92 90.464,1227.93C80.872,1287.5 249.136,1224.36 260.217,1165.04C274.149,1090.46 307.767,946.605 410.591,838.175C493.506,750.74 820.699,523.165 821.362,726.943C822.147,968.196 410.492,1021.85 406.626,1130.76C402.066,1259.22 399.8,1346.11 400.053,1438.21C400.335,1541.22 168.045,1843.79 202.851,1844.03C237.658,1844.28 610.259,1643.81 614.405,1439.01C615.755,1372.33 614.016,1322.15 613.73,1272.36C612.692,1091.49 1023.3,1067.22 1022.04,718.268Z" style="stroke:black;stroke-width:1px;"/>
    </g>
</svg>
