<?xml version="1.0" encoding="UTF-8" standalone="no"?>
<!DOCTYPE svg PUBLIC "-//W3C//DTD SVG 1.1//EN" "http://www.w3.org/Graphics/SVG/1.1/DTD/svg11.dtd">
<svg width="100%" height="100%" viewBox="0 0 2048 2048" version="1.1" xmlns="http://www.w3.org/2000/svg" xmlns:xlink="http://www.w3.org/1999/xlink" xml:space="preserve" xmlns:serif="http://www.serif.com/" style="fill-rule:evenodd;clip-rule:evenodd;stroke-linecap:round;stroke-linejoin:round;stroke-miterlimit:1.5;">
    <g id="レイヤー5">
        <path d="M1024.74,711.02C1025.43,615.208 820.051,409.656 613.51,409.155C504.834,408.891 315.845,613.133 315.845,613.133C315.845,613.133 317.292,566.392 316.654,510.713C315.475,407.876 315.586,407.696 263.617,408.573C238.605,408.995 221.367,409.082 205.688,408.84C183.05,408.491 1.78,564.268 1.734,615.037C1.687,666.491 111.59,616.315 111.601,664.744C111.636,815.299 109.903,1232.59 111.397,1337.25C112.742,1431.47 311.217,1277.01 311.008,1227.26C310.593,1128.37 312.681,1023.55 313.244,818.234C313.562,702.092 461.152,571.187 615.258,570.387C718.477,569.851 821.436,671.631 821.111,716.505C820.391,816.031 540.425,821.127 539.312,948.947C539.002,984.608 559.771,982.761 559.496,1020.78C558.268,1190.65 559.503,1323.58 559.193,1437.32C558.656,1634.12 742.646,1848.31 820.196,1847.3C1026.21,1844.62 1132.11,1669.94 1133.69,1638.88C1135.18,1609.72 1024.13,1734.09 918.536,1734.4C835.342,1734.63 768.309,1639.32 767.147,1433.14C766.309,1284.52 766.452,1122.33 768.168,1024.33C769.759,933.496 1023.22,922.87 1024.74,711.02Z" style="stroke:black;stroke-width:1px;"/>
    </g>
</svg>
