<?xml version="1.0" encoding="UTF-8" standalone="no"?>
<!DOCTYPE svg PUBLIC "-//W3C//DTD SVG 1.1//EN" "http://www.w3.org/Graphics/SVG/1.1/DTD/svg11.dtd">
<svg width="100%" height="100%" viewBox="0 0 2048 2048" version="1.1" xmlns="http://www.w3.org/2000/svg" xmlns:xlink="http://www.w3.org/1999/xlink" xml:space="preserve" xmlns:serif="http://www.serif.com/" style="fill-rule:evenodd;clip-rule:evenodd;stroke-linecap:round;stroke-linejoin:round;stroke-miterlimit:1.5;">
    <g id="レイヤー5">
        <path d="M817.569,88.055C816.952,1.751 817.255,0.792 727.794,1.149C655.386,1.437 406.655,117.163 408.728,206.253C411.024,304.918 614.863,209.065 614.31,313.125C613.794,410.406 612.977,555.709 612.977,555.709C612.977,555.709 2.724,710.04 0.919,1233.05C0.324,1405.29 203.99,1638.33 616.168,1637.92C819.034,1637.72 817.586,1431.2 817.586,1431.2L818.703,719.622C818.703,719.622 883.16,695.386 926.658,734.614C962.89,767.288 973.703,818.07 1027.06,819.489C1115.59,821.842 1230.75,682.607 1230.47,615.992C1229.81,459.722 822.233,511.242 822.233,511.242C822.233,511.242 818.398,204.025 817.569,88.055ZM611.916,765.607L614.9,1433.14C614.9,1433.14 249.858,1426.08 248.792,1189.08C247.26,848.496 611.916,765.607 611.916,765.607Z" style="stroke:black;stroke-width:1px;"/>
    </g>
</svg>
