<?xml version="1.0" encoding="UTF-8" standalone="no"?>
<!DOCTYPE svg PUBLIC "-//W3C//DTD SVG 1.1//EN" "http://www.w3.org/Graphics/SVG/1.1/DTD/svg11.dtd">
<svg width="100%" height="100%" viewBox="0 0 2048 2048" version="1.1" xmlns="http://www.w3.org/2000/svg" xmlns:xlink="http://www.w3.org/1999/xlink" xml:space="preserve" xmlns:serif="http://www.serif.com/" style="fill-rule:evenodd;clip-rule:evenodd;stroke-linecap:round;stroke-linejoin:round;stroke-miterlimit:1.5;">
    <g id="レイヤー5">
        <path d="M409.731,513.958C410.022,410.071 409.689,408.507 367.634,409.314C267.107,411.245 103.191,567.565 103.658,615.814C104.186,670.477 205.208,615.356 204.97,671.745C204.355,817.876 202.639,1229.66 206.366,1537.8C207.61,1640.67 2.574,1984.62 2.235,2013.29C1.848,2046.02 1.77,2047.85 28.374,2047.78C57.464,2047.69 410.928,1642.43 409.901,1540.85C408.829,1434.82 412.094,1336.01 412.094,1336.01C412.094,1336.01 611.095,1540.6 820.481,1539.68C979.465,1538.98 1184.15,1431.06 1187.53,1229.91C1190.86,1031.51 1118.66,820.064 819.88,819.83C617.097,819.67 411.935,1027.91 411.935,1027.91L413.119,927.681C413.119,927.681 622.935,617.716 821.266,617.004C939.689,616.579 1084.51,704.081 1131.68,703.839C1171,703.636 1180.34,656.928 1180.49,611.453C1180.79,526.37 1023.94,431.393 821.783,434.776C615.798,438.223 409.36,680.729 409.36,680.729C409.36,680.729 409.463,609.819 409.731,513.958ZM821.033,1025.22C1022.03,1020.84 1120.83,1351.49 817.251,1343.14C717.932,1340.41 516.091,1188.03 516.091,1188.03C516.091,1188.03 711.823,1027.6 821.033,1025.22Z" style="stroke:black;stroke-width:1px;"/>
    </g>
</svg>
