<?xml version="1.0" encoding="UTF-8" standalone="no"?>
<!DOCTYPE svg PUBLIC "-//W3C//DTD SVG 1.1//EN" "http://www.w3.org/Graphics/SVG/1.1/DTD/svg11.dtd">
<svg width="100%" height="100%" viewBox="0 0 2048 2048" version="1.1" xmlns="http://www.w3.org/2000/svg" xmlns:xlink="http://www.w3.org/1999/xlink" xml:space="preserve" xmlns:serif="http://www.serif.com/" style="fill-rule:evenodd;clip-rule:evenodd;stroke-linecap:round;stroke-linejoin:round;stroke-miterlimit:1.5;">
    <g id="レイヤー5">
        <path d="M1027.02,1229.61C1028.94,1025.48 724.802,931.362 724.802,931.362C724.802,931.362 804.98,871.148 839.95,835.487C875.046,799.699 932.343,750.179 932.19,713.903C932.034,676.978 854.224,615.452 820.896,614.751C787.053,614.04 759.966,661.474 719.963,661.841C687.142,662.142 613.853,668.381 613.245,718.663C612.59,772.884 673.356,724.453 672.362,776.335C669.344,933.876 307.022,1020.82 307.022,1020.82C307.022,1020.82 311.902,409.203 312.156,254.508C312.236,205.519 312.604,205.605 266.902,204.8C242.58,204.371 224.233,204.757 205.441,204.431C182.378,204.03 -0.286,356.615 0.358,409.394C0.954,458.258 114.726,409.619 114.141,465.352C112.585,613.637 112.408,1434.46 111.778,1545.45C111.248,1638.86 112.194,1639.2 158.712,1639.82C202.751,1640.41 356.076,1536.59 357.125,1432.06C358.058,1339.08 301.156,1434.03 300.526,1336.98C299.825,1228.94 301.41,1160.69 301.41,1160.69C301.41,1160.69 416.895,1121.54 468.761,1098.51C517.336,1076.94 612.605,1022.49 612.605,1022.49C612.605,1022.49 820.361,1133.53 820.428,1231.86C820.632,1532.77 528.612,1637.29 613.75,1637.76C708.591,1638.28 1024.21,1528.38 1027.02,1229.61Z" style="stroke:black;stroke-width:1px;"/>
    </g>
</svg>
