<?xml version="1.0" encoding="UTF-8" standalone="no"?>
<!DOCTYPE svg PUBLIC "-//W3C//DTD SVG 1.1//EN" "http://www.w3.org/Graphics/SVG/1.1/DTD/svg11.dtd">
<svg width="100%" height="100%" viewBox="0 0 2048 2048" version="1.1" xmlns="http://www.w3.org/2000/svg" xmlns:xlink="http://www.w3.org/1999/xlink" xml:space="preserve" xmlns:serif="http://www.serif.com/" style="fill-rule:evenodd;clip-rule:evenodd;stroke-linecap:round;stroke-linejoin:round;stroke-miterlimit:1.5;">
    <g transform="matrix(1,0,0,1,-106.458,-1.13648)">
        <g id="レイヤー5">
            <path d="M1434.54,445.874C1433.61,409.788 1432.76,409.838 1397.67,409.926C1229.14,410.351 1024.98,410.292 935.693,409.005C886.682,408.299 766.282,549.227 766.805,581.402C767.347,614.653 803.094,613.655 821.123,613.476C929.873,612.398 971.809,705.462 1023.43,815.68C1119.16,1020.06 1087.61,1324.17 817.982,1322.16C619.259,1320.68 409.028,981.011 408.83,821.273C408.576,615.585 409.784,614.239 409.323,455.225C409.189,409.165 410.134,410.234 367.096,410.541C348.683,410.673 326.535,410.309 305.006,410.238C247.139,410.047 238.098,488.1 199.28,518.846C151.932,556.349 106.352,581.037 105.646,618.317C103.997,705.489 208.368,612.099 206.619,710.382C204.713,817.506 203.147,1434.54 204.573,1590.78C204.994,1636.98 206.133,1638.17 238.446,1638.43C275.645,1638.73 409.976,1539.24 409.995,1469.77C410.033,1330.84 409.651,1173.66 409.651,1173.66C409.651,1173.66 614.11,1540.96 818.524,1539.24C1232.92,1535.76 1431.88,1030.63 1285.12,829.073C1212.06,728.72 1106.86,616.587 1106.86,616.587C1106.86,616.587 1190.78,614.485 1274.59,612.533C1335.54,611.114 1435.5,483.184 1434.54,445.874Z" style="stroke:black;stroke-width:1px;"/>
        </g>
    </g>
</svg>
