<?xml version="1.0" encoding="UTF-8" standalone="no"?>
<!DOCTYPE svg PUBLIC "-//W3C//DTD SVG 1.1//EN" "http://www.w3.org/Graphics/SVG/1.1/DTD/svg11.dtd">
<svg width="100%" height="100%" viewBox="0 0 2048 2048" version="1.1" xmlns="http://www.w3.org/2000/svg" xmlns:xlink="http://www.w3.org/1999/xlink" xml:space="preserve" xmlns:serif="http://www.serif.com/" style="fill-rule:evenodd;clip-rule:evenodd;stroke-linecap:round;stroke-linejoin:round;stroke-miterlimit:1.5;">
    <g id="レイヤー5">
        <path d="M1340.16,521.583C1340.53,462.074 1227.89,407.594 1124.12,407.297C1024.47,407.012 971.594,451.156 970.109,502.377C968.742,549.573 1077.53,572.451 1078.42,615.531C1080.51,717.412 776.098,904.326 776.098,904.326C776.098,904.326 560.679,410.272 306.058,411.932C203.609,412.599 3.52,675.142 1.964,723.505C0.318,774.672 102.674,612.784 249.972,612.675C355.274,612.597 576.672,1008.31 576.672,1008.31C576.672,1008.31 0.806,1276.94 -0.129,1528.61C-0.348,1587.65 96.619,1643.97 206.658,1639.97C309.299,1636.23 411.657,1593.89 410.422,1548.1C408.968,1494.18 296.536,1533.23 297.27,1436.41C298.007,1339.26 637.946,1171.83 637.946,1171.83C637.946,1171.83 821.61,1639.06 1024.65,1641.29C1228.17,1643.52 1336.88,1393.14 1337.35,1339.35C1337.79,1288.12 1227.79,1436.39 1129.41,1435.39C1027.35,1434.36 837.68,1078.44 837.68,1078.44C837.68,1078.44 1338.05,866.141 1340.16,521.583Z" style="stroke:black;stroke-width:1px;"/>
    </g>
</svg>
