<?xml version="1.0" encoding="UTF-8" standalone="no"?>
<!DOCTYPE svg PUBLIC "-//W3C//DTD SVG 1.1//EN" "http://www.w3.org/Graphics/SVG/1.1/DTD/svg11.dtd">
<svg width="100%" height="100%" viewBox="0 0 2048 2048" version="1.1" xmlns="http://www.w3.org/2000/svg" xmlns:xlink="http://www.w3.org/1999/xlink" xml:space="preserve" xmlns:serif="http://www.serif.com/" style="fill-rule:evenodd;clip-rule:evenodd;stroke-linecap:round;stroke-linejoin:round;stroke-miterlimit:1.5;">
    <g id="レイヤー5">
        <path d="M738.834,635.011C738.834,635.011 819.097,206.995 768.91,206.244C614.775,203.939 410.59,362.882 409.188,407.881C407.547,460.521 604.298,413.488 596.657,466.468C588.469,523.243 553.084,712.092 553.084,712.092C553.084,712.092 7.315,1022.6 2.646,1338.7C-0.296,1537.96 207.297,1638.74 410.803,1637.54C581.906,1636.53 930.414,1463.27 931.21,1433.2C931.978,1404.18 714.148,1487.51 517.132,1488.37C406.322,1488.86 206.742,1421.46 208.315,1287.75C209.99,1145.25 514.839,906.552 514.839,906.552C514.839,906.552 465.196,1157.71 448.638,1266.74C432.309,1374.27 1132.14,1324.51 1132.14,908.443C1132.13,504.828 738.834,635.011 738.834,635.011ZM708.712,822.435C708.712,822.435 930.521,705.283 926.581,923.734C923.069,1118.54 647.722,1165.52 653.888,1128.09C663.371,1070.53 708.712,822.435 708.712,822.435Z" style="stroke:black;stroke-width:1px;"/>
    </g>
</svg>
