<?xml version="1.0" encoding="UTF-8" standalone="no"?>
<!DOCTYPE svg PUBLIC "-//W3C//DTD SVG 1.1//EN" "http://www.w3.org/Graphics/SVG/1.1/DTD/svg11.dtd">
<svg width="100%" height="100%" viewBox="0 0 2048 2048" version="1.1" xmlns="http://www.w3.org/2000/svg" xmlns:xlink="http://www.w3.org/1999/xlink" xml:space="preserve" xmlns:serif="http://www.serif.com/" style="fill-rule:evenodd;clip-rule:evenodd;stroke-linecap:round;stroke-linejoin:round;stroke-miterlimit:1.5;">
    <g transform="matrix(0.745982,0,0,0.745982,-0.295187,415.807)">
        <g id="レイヤー5">
            <path d="M1024.84,-2.586C917.692,0.612 408.792,315.437 512.689,315.874C616.634,316.311 1636.85,310.325 1636.85,310.325L1227.77,616.229C1227.77,616.229 1227.38,535.413 1023.54,536.207C822.026,536.992 1.584,955.587 1.25,1415.49C1.181,1510.27 100.638,1631.48 200.793,1635.7C325.604,1640.96 485.942,1524.04 622.78,1411.97C827.026,1244.71 1006.76,1046.63 1006.76,1046.63C1006.76,1046.63 925.81,1639.14 1040.23,1639.18C1448.53,1639.31 1723.62,1299.3 1724.49,1234.86C1725.24,1179.95 1174.28,1426.36 1187.95,1287.17C1193.42,1231.58 1232.71,870.364 1232.71,870.364C1232.71,870.364 1489.64,651.691 1747.65,435.852C1818.04,376.968 1850.26,260.552 1848.05,186.333C1845.46,99.626 1757.53,109.933 1640.07,108.296C1428.57,105.347 1191.6,109.418 1127.58,108.791C1029.36,107.83 1120.12,-5.43 1024.84,-2.586ZM1009.04,817.821C1009.04,817.821 535.897,1335.81 313.033,1337.25C209.868,1337.91 654.625,740.058 964.719,749.1C1025.88,750.883 1009.04,817.821 1009.04,817.821Z" style="stroke:black;stroke-width:1.34px;"/>
        </g>
    </g>
</svg>
