<?xml version="1.0" encoding="UTF-8" standalone="no"?>
<!DOCTYPE svg PUBLIC "-//W3C//DTD SVG 1.1//EN" "http://www.w3.org/Graphics/SVG/1.1/DTD/svg11.dtd">
<svg width="100%" height="100%" viewBox="0 0 2048 2048" version="1.1" xmlns="http://www.w3.org/2000/svg" xmlns:xlink="http://www.w3.org/1999/xlink" xml:space="preserve" xmlns:serif="http://www.serif.com/" style="fill-rule:evenodd;clip-rule:evenodd;stroke-linecap:round;stroke-linejoin:round;stroke-miterlimit:1.5;">
    <g id="レイヤー5">
        <path d="M1432.92,819.835C1431.99,616.084 1236.79,509.138 1030.31,510.12C403.689,513.102 605.575,1479.83 410.26,1435.73C-78.156,1325.45 521.463,1023.97 521.624,620.821C521.67,503.838 463.379,406.778 361.531,410.698C272.784,414.113 116.639,468.675 116.777,517.586C116.925,569.778 304.422,601.806 302.335,713.45C300.455,813.948 0.135,1022.8 2.257,1229.48C4.204,1419.03 205.634,1638.38 503.454,1639.37C811.368,1640.4 661.782,1060.13 827.729,830.861C914.736,710.655 1030.29,619.795 1152.79,758.153C1213.51,826.731 1166.25,1055.97 1134.43,1135.89C1024.05,1413.12 685.541,1640.35 710.746,1638.53C744.912,1636.05 1436.25,1544.11 1432.92,819.835Z" style="stroke:black;stroke-width:1px;"/>
    </g>
</svg>
