<?xml version="1.0" encoding="UTF-8" standalone="no"?>
<!DOCTYPE svg PUBLIC "-//W3C//DTD SVG 1.1//EN" "http://www.w3.org/Graphics/SVG/1.1/DTD/svg11.dtd">
<svg width="100%" height="100%" viewBox="0 0 2048 2048" version="1.1" xmlns="http://www.w3.org/2000/svg" xmlns:xlink="http://www.w3.org/1999/xlink" xml:space="preserve" xmlns:serif="http://www.serif.com/" style="fill-rule:evenodd;clip-rule:evenodd;stroke-linecap:round;stroke-linejoin:round;stroke-miterlimit:1.5;">
    <path d="M739.053,591.742C807.319,518.688 949.446,388.88 1102.24,382.71C1210.98,378.318 1346.57,437.742 1347.95,489.346C1348.76,519.256 1357,557.522 1335.95,572.005C1314.91,586.488 1289.96,586.438 1208.27,568.596C1151.46,556.191 1112.22,513.787 1027.06,519.09C943.065,524.321 806.663,677.345 738.61,760.29L738.303,877.36C814.092,821.03 956.221,731.642 1093.92,732.611C1216.81,733.476 1388.93,853.558 1386.23,1011.21C1383.61,1163.95 1256.8,1339.69 1032.01,1347.23C918.363,1351.05 800.519,1249.16 737.497,1184.52L737.108,1332.76L360.531,1759.46L548.812,1366.4L552.844,653.458L403.469,572.667L608.125,352.708L739.689,349.112L739.053,591.742Z" style="stroke:black;stroke-width:1px;"/>
    <path d="M996.137,874.734C1111,869.553 1184.19,994.978 1168.45,1091.88C1157.59,1158.76 1133.9,1205.9 1080.1,1217.72C986.804,1238.21 776.601,1009.76 776.601,1009.76C776.601,1009.76 910.824,878.582 996.137,874.734Z" style="fill:white;stroke:black;stroke-width:1px;"/>
</svg>
