<?xml version="1.0" encoding="UTF-8" standalone="no"?>
<!DOCTYPE svg PUBLIC "-//W3C//DTD SVG 1.1//EN" "http://www.w3.org/Graphics/SVG/1.1/DTD/svg11.dtd">
<svg width="100%" height="100%" viewBox="0 0 2048 2048" version="1.1" xmlns="http://www.w3.org/2000/svg" xmlns:xlink="http://www.w3.org/1999/xlink" xml:space="preserve" xmlns:serif="http://www.serif.com/" style="fill-rule:evenodd;clip-rule:evenodd;stroke-linecap:round;stroke-linejoin:round;stroke-miterlimit:1.5;">
    <g id="レイヤー5">
        <path d="M1334.37,818.827C1332.92,514.016 1236.44,200.692 817.626,198.529C610.164,197.457 397.353,304.37 308.116,303.72C109.664,302.274 318.257,5.34 318.257,5.34C318.257,5.34 3.825,100.073 2.528,303.592C1.245,504.963 210.748,512.403 302.291,512.096C609.882,511.063 669.173,407.813 815.071,408.912C1118.93,411.201 1107.55,822.867 1107.55,822.867L413.347,822.095L205.82,1023.88L1091.51,1023.38C1091.51,1023.38 1019.46,1433.95 713.183,1432.9C509.604,1432.2 410.96,1375.8 299.502,1286.78C254.253,1250.63 160.306,1392.35 203.134,1431.33C302.667,1521.92 510.814,1645.94 719.625,1642.12C1016.65,1636.69 1337.31,1439.49 1334.37,818.827Z" style="stroke:black;stroke-width:1px;"/>
    </g>
</svg>
