<?xml version="1.0" encoding="UTF-8" standalone="no"?>
<!DOCTYPE svg PUBLIC "-//W3C//DTD SVG 1.1//EN" "http://www.w3.org/Graphics/SVG/1.1/DTD/svg11.dtd">
<svg width="100%" height="100%" viewBox="0 0 2048 2048" version="1.1" xmlns="http://www.w3.org/2000/svg" xmlns:xlink="http://www.w3.org/1999/xlink" xml:space="preserve" xmlns:serif="http://www.serif.com/" style="fill-rule:evenodd;clip-rule:evenodd;stroke-linecap:round;stroke-linejoin:round;stroke-miterlimit:1.5;">
    <g id="レイヤー5">
        <path d="M947.434,1.698C947.434,1.698 893.583,0.557 856.902,0.314C818.461,0.06 523.121,175.284 521.186,207.631C519.032,243.628 518.893,267.145 519.214,296.91C519.68,340.149 678.727,303.336 662.004,407.326C629.146,611.643 502.519,1434.27 502.519,1434.27C502.519,1434.27 205.21,1433.9 105.692,1431.67C55.83,1430.56 0.56,1490.07 0.05,1537.63C-0.303,1570.51 3.046,1638.16 3.046,1638.16L819.381,1638.71C819.381,1638.71 953.868,1641.37 1027.69,1555.51C1116.04,1452.77 1229.71,1228.65 1229.71,1228.65C1229.71,1228.65 1064.49,1434.69 970.894,1434.97C820.781,1435.41 712.257,1432.26 712.257,1432.26L947.434,1.698Z" style="stroke:black;stroke-width:1px;"/>
    </g>
</svg>
