<?xml version="1.0" encoding="UTF-8" standalone="no"?>
<!DOCTYPE svg PUBLIC "-//W3C//DTD SVG 1.1//EN" "http://www.w3.org/Graphics/SVG/1.1/DTD/svg11.dtd">
<svg width="100%" height="100%" viewBox="0 0 2048 2048" version="1.1" xmlns="http://www.w3.org/2000/svg" xmlns:xlink="http://www.w3.org/1999/xlink" xml:space="preserve" xmlns:serif="http://www.serif.com/" style="fill-rule:evenodd;clip-rule:evenodd;stroke-linecap:round;stroke-linejoin:round;stroke-miterlimit:1.5;">
    <g id="レイヤー5">
        <path d="M611.49,428.349L618.026,1135.6C618.026,1135.6 723.116,1137.71 823.858,1133.86C954.165,1128.88 1435.28,817.267 1434.69,407.359C1434.24,87.774 1221.93,1.952 1028.65,1.341C418.501,-0.586 1.582,810.802 -1.519,1321.25C-2.744,1522.89 207.023,1638.84 413.95,1638.76C821.629,1638.59 1230.27,1125.92 1230.27,1125.92C1230.27,1125.92 470.403,1579.13 321.63,1325.06C103.122,951.897 611.49,428.349 611.49,428.349ZM819.551,314.593C819.551,314.593 953.695,203.809 1022.32,204.579C1133.88,205.831 1226.82,313.387 1227.13,411.763C1228.06,712.209 819.551,921.03 819.551,921.03L819.551,314.593Z" style="stroke:black;stroke-width:1px;"/>
    </g>
</svg>
