<?xml version="1.0" encoding="UTF-8" standalone="no"?>
<!DOCTYPE svg PUBLIC "-//W3C//DTD SVG 1.1//EN" "http://www.w3.org/Graphics/SVG/1.1/DTD/svg11.dtd">
<svg width="100%" height="100%" viewBox="0 0 2048 2048" version="1.1" xmlns="http://www.w3.org/2000/svg" xmlns:xlink="http://www.w3.org/1999/xlink" xml:space="preserve" xmlns:serif="http://www.serif.com/" style="fill-rule:evenodd;clip-rule:evenodd;stroke-linecap:round;stroke-linejoin:round;stroke-miterlimit:1.5;">
    <g id="レイヤー5">
        <path d="M410.076,2.514C410.076,2.514 381.681,2.074 359.434,1.801C310.451,1.199 103.541,174.885 102.499,204.312C101.539,231.411 102.182,238.771 102.375,258.336C102.816,303.002 157.809,279.727 153.444,301.608C121.48,461.846 2.292,1020.72 2.108,1229.42C1.929,1433.14 204.696,1636.93 613.777,1636.76C1021.12,1636.6 1231.7,1234.39 1231.7,1234.39C1231.7,1234.39 824.229,1433.49 616.46,1433.47C148.406,1433.44 260.812,918.139 260.812,918.139L1121.32,915.314L1234.91,711.189L279.905,714.952C279.905,714.952 301.902,408.826 385.774,206.163C391.784,191.64 410.103,201.985 409.613,164.552C408.786,101.374 410.076,2.514 410.076,2.514Z" style="stroke:black;stroke-width:1px;"/>
    </g>
</svg>
