<?xml version="1.0" encoding="UTF-8" standalone="no"?>
<!DOCTYPE svg PUBLIC "-//W3C//DTD SVG 1.1//EN" "http://www.w3.org/Graphics/SVG/1.1/DTD/svg11.dtd">
<svg width="100%" height="100%" viewBox="0 0 2048 2048" version="1.1" xmlns="http://www.w3.org/2000/svg" xmlns:xlink="http://www.w3.org/1999/xlink" xml:space="preserve" xmlns:serif="http://www.serif.com/" style="fill-rule:evenodd;clip-rule:evenodd;stroke-linecap:round;stroke-linejoin:round;stroke-miterlimit:1.5;">
    <g id="レイヤー5">
        <path d="M410.966,119.977C411.322,58.994 412.441,3.446 333.315,2.321C250.665,1.146 2.135,169.256 1.667,205.867C1.177,244.225 204.893,254.626 204.859,312.691C204.684,610.751 205.79,1229.06 206.308,1571.46C206.405,1635.66 227.048,1638.69 264.993,1637.75C305.838,1636.74 409.661,1581.77 410.5,1521.47C414.517,1232.96 413.054,824.325 413.054,824.325C413.054,824.325 615.182,615.111 723.107,614.807C823.021,614.525 1187.19,621.143 1186.98,937.843C1186.85,1135.36 820.01,1637.74 820.01,1637.74C820.01,1637.74 1433.69,1427.14 1434.9,923.943C1435.64,615.329 1025.64,501.629 1025.64,501.629C1025.64,501.629 1227.93,368.122 1231.09,206.081C1233.11,102.316 1095.41,1.904 1025.86,1.576C965.813,1.294 865.181,42.705 865.281,92.343C865.415,158.961 1025.06,156.68 1024.37,206.339C1023.68,255.999 910.487,374.858 822.32,407.313C695.847,453.87 412.506,750.649 412.506,750.649C412.506,750.649 409.275,409.099 410.966,119.977Z" style="stroke:black;stroke-width:1px;"/>
    </g>
</svg>
