<?xml version="1.0" encoding="UTF-8" standalone="no"?>
<!DOCTYPE svg PUBLIC "-//W3C//DTD SVG 1.1//EN" "http://www.w3.org/Graphics/SVG/1.1/DTD/svg11.dtd">
<svg width="100%" height="100%" viewBox="0 0 2048 2048" version="1.1" xmlns="http://www.w3.org/2000/svg" xmlns:xlink="http://www.w3.org/1999/xlink" xml:space="preserve" xmlns:serif="http://www.serif.com/" style="fill-rule:evenodd;clip-rule:evenodd;stroke-linecap:round;stroke-linejoin:round;stroke-miterlimit:1.5;">
    <g id="レイヤー5">
        <path d="M1559.44,-3.052L823.075,0.259L730.234,201.566C730.234,201.566 1192.74,423.96 1190.23,821.306C1188.99,1018.46 1147.25,1200.8 923.554,1199.43C617.837,1197.56 414.29,821.433 414.29,821.433L403.225,0.016C403.225,0.016 317.55,3.338 261.316,3.028C206.264,2.725 0.708,158.44 0.68,204.147C0.621,298.745 203.198,208.483 202.951,306.159C202.16,618.631 206.769,1639.83 206.769,1639.83L412.196,1432.43L406.001,1026.29C406.001,1026.29 618.628,1433.78 920.31,1434.15C1429.2,1434.78 1433.78,1028.8 1432.81,811.712C1431.53,524.86 1027.47,206.382 1027.47,206.382L1427.72,201.134L1559.44,-3.052Z" style="stroke:black;stroke-width:1px;"/>
    </g>
</svg>
