<?xml version="1.0" encoding="UTF-8" standalone="no"?>
<!DOCTYPE svg PUBLIC "-//W3C//DTD SVG 1.1//EN" "http://www.w3.org/Graphics/SVG/1.1/DTD/svg11.dtd">
<svg width="100%" height="100%" viewBox="0 0 2048 2048" version="1.1" xmlns="http://www.w3.org/2000/svg" xmlns:xlink="http://www.w3.org/1999/xlink" xml:space="preserve" xmlns:serif="http://www.serif.com/" style="fill-rule:evenodd;clip-rule:evenodd;stroke-linecap:round;stroke-linejoin:round;stroke-miterlimit:1.5;">
    <g id="レイヤー5">
        <path d="M1436.79,705.904L1133.11,698.237L1122.08,-0.317C1122.08,-0.317 1026.72,-1.263 918.893,0.218C819.555,1.582 0.49,410.405 1.867,741.841C2.151,810.219 -0.304,901.504 0.041,1016.64C1.626,1545.2 818.287,1636.71 818.287,1636.71L1133.19,1429.17L1137.67,918.522L1333.39,915.201L1436.79,705.904ZM924.564,209.263L927.337,696.201L615.401,700.618L512.561,869.472L925.462,866.874L922.489,1428.26C922.489,1428.26 857.814,1436.1 820.862,1435.31C617.142,1430.96 207.705,1222 205.882,988.233C205.411,927.843 203.61,860.883 203.66,771.931C203.802,513.739 924.564,209.263 924.564,209.263Z" style="stroke:black;stroke-width:1px;"/>
    </g>
</svg>
