<?xml version="1.0" encoding="UTF-8" standalone="no"?>
<!DOCTYPE svg PUBLIC "-//W3C//DTD SVG 1.1//EN" "http://www.w3.org/Graphics/SVG/1.1/DTD/svg11.dtd">
<svg width="100%" height="100%" viewBox="0 0 2048 2048" version="1.1" xmlns="http://www.w3.org/2000/svg" xmlns:xlink="http://www.w3.org/1999/xlink" xml:space="preserve" xmlns:serif="http://www.serif.com/" style="fill-rule:evenodd;clip-rule:evenodd;stroke-linecap:round;stroke-linejoin:round;stroke-miterlimit:1.5;">
    <g id="レイヤー5">
        <path d="M1435.93,412.85C1437.04,204.987 1232.17,-2.69 926.356,0.973C722.728,3.413 310.034,213.95 306.417,617.623C305.125,761.721 413.252,930.298 521.621,930.661C562.677,930.798 616.284,820.504 614.751,925.379C613.327,1022.81 613.615,1229.33 409.576,1416.26C291.882,1524.09 7.468,1545.49 7.468,1545.49C7.468,1545.49 202.874,1637.96 298.566,1638.15C610.428,1638.77 818.332,1229.74 819.382,1018.98C820.376,819.631 820.908,819.506 821.389,720.421C821.64,668.683 761.796,614.171 716.559,615.372C669.167,616.631 660.898,715.083 615.401,714.335C566.738,713.535 407.794,205.618 925.983,203.942C1041.34,203.569 1232.74,307.877 1231.35,406.133C1225.52,819.26 1132.96,613.604 1128.43,818.827C1124.06,1017.28 1116.07,1232.44 1119.23,1430.76C1120.37,1503.07 1026.32,1626.81 1026.32,1626.81C1026.32,1626.81 1330.04,1548.36 1331.54,1426.72C1333.97,1231.01 1327.05,1027.37 1328.89,825.698C1330.81,615.943 1433.8,812.259 1435.93,412.85Z" style="stroke:black;stroke-width:1px;"/>
    </g>
</svg>
