<?xml version="1.0" encoding="UTF-8" standalone="no"?>
<!DOCTYPE svg PUBLIC "-//W3C//DTD SVG 1.1//EN" "http://www.w3.org/Graphics/SVG/1.1/DTD/svg11.dtd">
<svg width="100%" height="100%" viewBox="0 0 2048 2048" version="1.1" xmlns="http://www.w3.org/2000/svg" xmlns:xlink="http://www.w3.org/1999/xlink" xml:space="preserve" xmlns:serif="http://www.serif.com/" style="fill-rule:evenodd;clip-rule:evenodd;stroke-linecap:round;stroke-linejoin:round;stroke-miterlimit:1.5;">
    <g id="レイヤー5">
        <path d="M1332.37,212.123C1331.09,112.72 1022.35,-0.625 821.694,0.497C616.671,1.643 308.348,204.938 202.426,531.72C139.876,724.694 -0.022,1543.34 0.29,1583C0.743,1640.56 2.314,1637.5 44.616,1638.4C91.292,1639.39 214.288,1535.57 234.626,1437.07C256.241,1332.38 324.951,1027.83 324.951,1027.83C324.951,1027.83 529.014,817.225 722.032,818.229C940.58,819.365 1027.47,930.179 1026.13,1026.07C1023.34,1225.53 690.149,1456.08 615.682,1544.87C595.023,1569.5 764.067,1589.29 816.13,1547.41C1006.51,1394.24 1231.71,1228.44 1230.43,1021.59C1229.48,867.186 1135.14,616.246 722.652,614.977C601.328,614.603 371.278,724.343 371.278,724.343C371.278,724.343 370.879,205.218 818.627,205.369C1161.91,205.485 1126.16,506.039 1175.62,504.693C1222.43,503.419 1334.85,404.079 1332.37,212.123Z" style="stroke:black;stroke-width:1px;"/>
    </g>
</svg>
